<?xml version="1.0" encoding="UTF-8"?>
<svg xmlns="http://www.w3.org/2000/svg" xmlns:xlink="http://www.w3.org/1999/xlink" version="1.1" viewBox="0 0 600 600">
  <defs>
    <style>
      .cls-1 {
        fill: url(#linear-gradient);
      }

      .cls-2 {
        fill: #fff;
      }
    </style>
    <linearGradient id="linear-gradient" x1="78.991" y1="507.105" x2="568.029" y2="51.247" gradientTransform="translate(0 600.11) scale(1 -1)" gradientUnits="userSpaceOnUse">
      <stop offset="0" stop-color="#00a8de"/>
      <stop offset=".048" stop-color="#149ad6"/>
      <stop offset=".147" stop-color="#4978c2"/>
      <stop offset=".25" stop-color="#8751ab"/>
      <stop offset=".5" stop-color="#ea2281"/>
      <stop offset=".75" stop-color="#f6a249"/>
      <stop offset="1" stop-color="#fbd533"/>
    </linearGradient>
  </defs>
  <!-- Generator: Adobe Illustrator 28.7.1, SVG Export Plug-In . SVG Version: 1.2.0 Build 142)  -->
  <g>
    <g id="Layer_1">
      <rect class="cls-1" x="23.432" y="22.363" width="555.752" height="555.752" rx="31.994" ry="31.994"/>
      <g>
        <path class="cls-2" d="M439.388,99.873l10.783,32.468c.711,2.251,2.607,4.029,4.858,4.858l32.468,10.783c1.422.474,1.422,2.488,0,2.962l-32.468,10.783c-2.251.711-4.029,2.607-4.858,4.858l-10.783,32.468c-.474,1.422-2.488,1.422-2.962,0l-10.783-32.468c-.711-2.251-2.607-4.029-4.858-4.858l-32.468-10.783c-1.422-.474-1.422-2.488,0-2.962l32.468-10.783c2.251-.711,4.029-2.607,4.858-4.858l10.783-32.468c.474-1.422,2.488-1.422,2.962,0Z"/>
        <path class="cls-2" d="M490.934,201.188l6.754,20.145c.711,2.251,2.607,4.029,4.858,4.858l20.145,6.754c1.422.474,1.422,2.488,0,2.962l-20.145,6.754c-2.251.711-4.029,2.607-4.858,4.858l-6.754,20.145c-.474,1.422-2.488,1.422-2.962,0l-6.754-20.145c-.711-2.251-2.607-4.029-4.858-4.858l-20.145-6.754c-1.422-.474-1.422-2.488,0-2.962l20.145-6.754c2.251-.711,4.029-2.607,4.858-4.858l6.754-20.145c.474-1.422,2.488-1.422,2.962,0Z"/>
        <path class="cls-2" d="M455.03,279.752l-56.879-18.96c-4.621-1.54-8.176-5.095-9.717-9.717l-18.96-56.879c-.948-2.844-4.977-2.844-5.925,0l-18.96,56.879c-1.54,4.621-5.095,8.176-9.717,9.717l-16.353,5.451h0l-10.783,3.555-29.861,9.954h-.474c-2.725,1.066-2.725,4.858,0,5.806h.474v.119l12.916,4.266,11.613,3.91h0l32.35,10.783c4.621,1.54,8.176,5.095,9.717,9.717l18.96,56.879c.948,2.844,4.977,2.844,5.925,0l18.96-56.879c1.54-4.621,5.095-8.176,9.717-9.717l56.879-18.96c2.844-.948,2.844-4.977,0-5.925h.119Z"/>
        <path class="cls-2" d="M229.529,336.63l52.139-30.572-9.835-3.318c-6.162-2.014-10.902-6.754-13.035-12.561l-44.081,25.951,14.812,20.5Z"/>
        <polygon class="cls-2" points="332.622 335.919 327.882 321.463 314.492 316.96 246.119 357.604 260.931 378.104 332.622 335.919"/>
        <path class="cls-2" d="M405.972,322.173l-2.251,6.754c.948,1.066,1.422,1.777,1.422,1.777,12.798,14.812,9.598,35.786-7.702,46.806-16.945,10.665-125.607,79.393-125.607,79.393-.355-14.457-5.688-28.558-15.405-40.289,0,0-108.899-138.76-135.798-173.006-22.396-28.558.592-56.642,23.936-56.642,34.246,0,46.214,46.214,15.642,62.685l20.5,25.951,153.454-86.74c26.188-19.315,32.942-55.101,16.945-82.237-16.353-27.847-50.835-38.393-79.512-25.595l-155.35,79.512c-39.46,18.841-49.65,67.188-21.092,103.093,27.491,34.364,137.694,175.257,137.694,175.257,16.59,21.803.711,53.205-26.543,53.205s-46.214-46.214-15.642-62.685l-20.263-25.951c-35.312,22.751-40.408,72.402-11.139,101.789,20.263,20.263,53.087,26.662,80.697,10.309,0,0,177.153-111.743,177.983-112.335,26.662-17.656,39.697-56.76,15.286-90.295l-27.136,9.006-.119.237ZM284.275,111.13c13.39-6.162,31.046-2.251,38.986,13.035,6.991,13.153,4.384,31.165-11.494,40.289l-101.197,57.353c.592-23.699-11.494-45.147-30.454-57.234l104.159-53.442Z"/>
      </g>
    </g>
  </g>
</svg>